<svg width="198" height="30" viewBox="0 0 198 30" fill="none" xmlns="http://www.w3.org/2000/svg">
<path d="M49.5128 24.7614L47.9528 19.7934H38.9528L37.3928 24.7614H32.6648L39.5288 4.36141H47.4008L54.2168 24.7614H49.5128ZM40.1288 15.9534H46.7768L44.1848 7.64941H42.7208L40.1288 15.9534ZM56.6858 24.7614V7.98541H66.1898V11.8494H61.0538V24.7614H56.6858ZM80.7349 24.7614L75.9109 18.2574H73.0069V24.7614H68.6389V4.36141H73.0069V14.3934H75.8149L80.0149 7.98541H84.9829L79.2469 16.2414L85.8469 24.7614H80.7349ZM97.327 24.7614L93.967 7.93741H92.911V24.7614H88.591V4.36141H97.663L100.951 21.1854H101.983L105.271 4.36141H114.343V24.7614H110.023V7.93741H108.967L105.607 24.7614H97.327ZM128.128 24.7614V21.6174H128.008C127.24 23.9454 125.44 25.1454 122.896 25.1454C119.728 25.1454 116.968 23.2974 116.968 19.7214C116.968 16.6014 119.128 14.5134 123.976 14.5134H128.128V11.6814H118.816V7.98541H132.496V24.7614H128.128ZM121 19.7454C121 21.2334 122.32 21.9054 124.144 21.9054C126.568 21.9054 128.128 20.8974 128.128 18.5694V17.7054H124.072C122.08 17.7054 121 18.3054 121 19.7454ZM136.865 24.7614V7.98541H146.369V11.8494H141.233V24.7614H136.865ZM160.915 24.7614L156.091 18.2574H153.187V24.7614H148.819V4.36141H153.187V14.3934H155.995L160.195 7.98541H165.163L159.427 16.2414L166.027 24.7614H160.915ZM174.982 25.1454C169.27 25.1454 165.67 21.4014 165.67 16.3614C165.67 11.2974 169.294 7.60141 174.718 7.60141C180.19 7.60141 183.622 11.2974 183.622 16.6734V17.6814H169.918C170.422 20.3214 172.486 21.6414 174.886 21.6414C177.022 21.6414 178.774 20.8014 179.374 19.2654H183.622C182.998 23.1534 179.326 25.1454 174.982 25.1454ZM170.086 14.3934H179.518C178.846 12.2334 176.998 11.1054 174.814 11.1054C172.702 11.1054 170.806 12.2334 170.086 14.3934ZM186.951 24.7614V4.36141H191.319V7.98541H195.903V11.8494H191.319V24.7614H186.951Z" fill="#FFFEEB"/>
<path fill-rule="evenodd" clip-rule="evenodd" d="M12.6736 25.3692C20.1228 25.8074 26.4732 20.8646 26.8576 14.3291C27.2421 7.79365 21.5151 2.14033 14.0659 1.70211C11.4047 1.54555 8.88364 2.07578 6.72479 3.12007C8.2904 2.62108 10.0068 2.39332 11.793 2.4984C18.5721 2.89721 23.7901 7.93913 23.4477 13.7599C23.1052 19.5806 17.3321 23.9759 10.553 23.5771C7.33489 23.3878 4.46858 22.1521 2.3819 20.2836C4.69305 23.1498 8.39991 25.1178 12.6736 25.3692Z" fill="#F8545C"/>
<path fill-rule="evenodd" clip-rule="evenodd" d="M2.67571 6.45874C0.524918 7.98153 -0.554086 12.0324 0.284707 15.1358C1.79871 18.535 6.30546 19.849 10.2661 19.7542C15.2149 19.7542 18.1506 16.9941 18.1506 13.3874C18.1506 10.1162 15.8021 6.05334 6.40776 6.05334C5.14159 6.05566 3.88305 6.19688 2.67571 6.45874ZM1.79431 12.1467C2.4477 11.3722 3.35496 10.9309 4.30752 11.0305C5.26002 11.1302 6.05626 11.7497 6.53522 12.6425C6.60187 10.7317 5.74524 9.15042 4.5176 9.02199C3.28994 8.89355 2.12455 10.2634 1.79431 12.1467ZM11.896 11.9666C10.9435 11.8669 10.0363 12.3082 9.38293 13.0826C9.71316 11.1992 10.8786 9.82938 12.1062 9.95782C13.334 10.0863 14.1906 11.6678 14.1238 13.5788C13.6449 12.6858 12.8486 12.0662 11.896 11.9666Z" fill="#F8545C"/>
</svg>
